<svg xmlns="http://www.w3.org/2000/svg" viewBox="0 0 24 24" fill="none" stroke="currentColor" stroke-width="1.2">
  <path fill="transparent" d="M15,13h6v4h-6z"></path>
  <path fill="transparent" d="M20,7V4H5.5C4.119,4 3,5.119 3,6.5C3,7.881 4.119,9 5.5,9H18L20,7Z"></path>
  <path d="M3,6.5C3,5.119 4.119,4 5.5,4H19.286C19.485,4 19.585,4 19.665,4.028C19.809,4.078 19.922,4.191 19.972,4.335C20,4.415 20,4.515 20,4.714C20,5.911 20,6.51 19.832,6.991C19.53,7.853 18.853,8.53 17.991,8.832C17.51,9 16.911,9 15.714,9H15M3,6.5C3,7.881 4.119,9 5.5,9H19C19.943,9 20.414,9 20.707,9.293C21,9.586 21,10.057 21,11V13M3,6.5V17C3,18.886 3,19.828 3.586,20.414C4.172,21 5.114,21 7,21H19C19.943,21 20.414,21 20.707,20.707C21,20.414 21,19.943 21,19V17M21,17H17C16.057,17 15.586,17 15.293,16.707C15,16.414 15,15.943 15,15C15,14.057 15,13.586 15.293,13.293C15.586,13 16.057,13 17,13H21V17Z"></path>
</svg>
